<svg width="53.000000" height="11.000000" viewBox="0 0 53 11" fill="none" xmlns="http://www.w3.org/2000/svg" xmlns:xlink="http://www.w3.org/1999/xlink">
	<desc>
			Created with Pixso.
	</desc>
	<defs/>
	<path id="BiJunJie" d="M11.7 2.08Q11.47 2.08 11.27 2Q11.15 1.94 11.04 1.86Q10.98 1.81 10.93 1.75Q10.76 1.53 10.76 1.18C10.76 0.84 10.88 0.56 11.12 0.33Q11.34 0.12 11.6 0.04L11.6 0.04Q11.76 0 11.94 0C12.19 0 12.41 0.07 12.6 0.23Q12.67 0.28 12.72 0.35Q12.89 0.57 12.89 0.9C12.89 1.25 12.77 1.53 12.52 1.75C12.28 1.97 12.01 2.08 11.7 2.08ZM45.17 2.08Q44.94 2.08 44.75 2L44.75 2Q44.62 1.94 44.52 1.86C44.33 1.71 44.24 1.48 44.24 1.18C44.24 0.84 44.35 0.56 44.59 0.33Q44.81 0.12 45.08 0.04Q45.24 0 45.41 0C45.66 0 45.88 0.07 46.07 0.23Q46.15 0.28 46.2 0.35Q46.36 0.57 46.36 0.9C46.36 1.25 46.24 1.53 46 1.75C45.75 1.97 45.48 2.08 45.17 2.08ZM2.91 10.62C2.43 10.62 1.93 10.6 1.4 10.56C0.87 10.52 0.41 10.45 0 10.35L2.25 0.96Q2.88 0.82 3.58 0.77Q4.28 0.71 4.99 0.71Q5.58 0.71 6.19 0.79Q6.8 0.88 7.29 1.12Q7.61 1.28 7.85 1.52L7.85 1.52Q7.98 1.64 8.09 1.79Q8.41 2.22 8.41 2.89C8.41 3.39 8.27 3.86 7.99 4.29Q7.58 4.95 6.6 5.36Q7.14 5.58 7.47 5.97Q7.51 6.03 7.55 6.09Q7.65 6.23 7.72 6.38Q7.89 6.75 7.89 7.19C7.89 8.28 7.46 9.13 6.61 9.73Q5.33 10.62 2.91 10.62ZM18.1 7.48C17.98 7.95 17.85 8.38 17.68 8.78C17.52 9.18 17.3 9.52 17.02 9.8C16.74 10.09 16.39 10.31 15.96 10.47Q15.32 10.72 14.36 10.72C13.79 10.72 13.29 10.63 12.85 10.45C12.41 10.26 12.07 10.07 11.82 9.85L12.64 8.52C12.82 8.68 13.06 8.83 13.33 8.98Q13.76 9.19 14.39 9.19C14.68 9.19 14.93 9.16 15.14 9.09C15.36 9.02 15.54 8.9 15.69 8.75Q15.93 8.51 16.09 8.13C16.2 7.88 16.3 7.57 16.39 7.2L17.92 0.81L19.69 0.81L18.1 7.48ZM40.85 7.48C40.73 7.95 40.6 8.38 40.43 8.78C40.27 9.18 40.05 9.52 39.77 9.8C39.49 10.09 39.14 10.31 38.71 10.47C38.29 10.64 37.75 10.72 37.11 10.72C36.54 10.72 36.04 10.63 35.6 10.45C35.16 10.26 34.82 10.07 34.57 9.85L35.39 8.52C35.57 8.68 35.81 8.83 36.08 8.98C36.37 9.12 36.72 9.19 37.14 9.19C37.43 9.19 37.68 9.16 37.89 9.09C38.11 9.02 38.29 8.9 38.44 8.75Q38.68 8.51 38.84 8.13C38.95 7.88 39.05 7.57 39.14 7.2L40.66 0.81L42.44 0.81L40.85 7.48ZM3.09 4.77L4.43 4.77C4.72 4.77 5 4.74 5.27 4.68C5.54 4.63 5.78 4.54 5.98 4.41C6.18 4.29 6.34 4.13 6.46 3.94Q6.64 3.66 6.64 3.26Q6.64 2.83 6.43 2.59Q6.33 2.46 6.16 2.38Q5.68 2.14 4.87 2.14C4.65 2.14 4.44 2.14 4.22 2.16C4.01 2.17 3.84 2.19 3.7 2.21L3.09 4.77ZM46.36 7.86C46.36 7.24 46.46 6.63 46.66 6.05C46.86 5.46 47.15 4.95 47.53 4.5Q47.79 4.19 48.09 3.94Q48.46 3.63 48.89 3.41Q48.93 3.39 48.97 3.38Q49.74 3.01 50.69 3.01Q51.71 3.01 52.29 3.51Q52.32 3.53 52.34 3.55C52.73 3.92 52.93 4.38 52.93 4.95C52.93 5.54 52.78 6.02 52.49 6.38Q52.45 6.44 52.39 6.5L52.39 6.5Q51.98 6.96 51.37 7.23C50.9 7.44 50.38 7.58 49.8 7.65C49.22 7.73 48.63 7.77 48.03 7.79C48.02 7.81 48.02 7.83 48.02 7.85L48.02 7.99Q48.02 8.48 48.25 8.78Q48.63 9.26 49.63 9.26C50.26 9.26 50.89 9.13 51.53 8.87L51.67 10.24Q51.33 10.4 50.72 10.55C50.31 10.65 49.84 10.7 49.32 10.7C48.79 10.7 48.34 10.63 47.97 10.48C47.6 10.33 47.29 10.13 47.06 9.87C46.82 9.6 46.64 9.3 46.53 8.96C46.42 8.62 46.36 8.26 46.36 7.86ZM29.1 3.5C29.47 3.38 29.9 3.28 30.38 3.18Q31.1 3.03 31.96 3.03C32.81 3.03 33.45 3.24 33.85 3.66C34.25 4.08 34.45 4.65 34.45 5.36C34.45 5.55 34.43 5.76 34.4 5.98C34.37 6.2 34.33 6.43 34.28 6.66L33.36 10.51L31.66 10.51L32.53 6.84C32.58 6.64 32.62 6.43 32.67 6.21C32.72 6 32.74 5.79 32.76 5.59C32.76 5.58 32.76 5.56 32.76 5.54C32.76 5.24 32.68 4.99 32.52 4.78C32.36 4.57 32.04 4.46 31.56 4.46C31.16 4.46 30.82 4.5 30.53 4.59L29.12 10.51L27.42 10.51L29.1 3.5ZM10.44 10.51L8.76 10.51L10.51 3.19L12.2 3.19L10.44 10.51ZM26.97 3.19L25.94 7.54C25.89 7.76 25.85 7.97 25.83 8.18C25.81 8.4 25.8 8.61 25.8 8.83Q25.8 9.23 25.86 9.63C25.9 9.89 25.97 10.15 26.08 10.4L24.56 10.62C24.51 10.52 24.46 10.41 24.41 10.28C24.37 10.15 24.33 10.02 24.3 9.89C24.07 10.08 23.78 10.26 23.43 10.43C23.09 10.6 22.68 10.69 22.23 10.69C21.82 10.69 21.47 10.63 21.18 10.51C20.89 10.39 20.65 10.22 20.47 10.01C20.29 9.8 20.16 9.55 20.08 9.27C20 8.99 19.96 8.68 19.96 8.37C19.96 7.96 20.01 7.51 20.12 7.04L21.05 3.19L22.74 3.19L21.83 7Q21.65 7.72 21.65 8.18Q21.65 8.41 21.69 8.6C21.72 8.73 21.77 8.85 21.84 8.95C21.91 9.04 22.01 9.12 22.13 9.18C22.26 9.23 22.42 9.26 22.6 9.26C22.91 9.26 23.19 9.2 23.43 9.07C23.67 8.95 23.9 8.78 24.1 8.56Q24.14 7.96 24.3 7.33L25.28 3.19L26.97 3.19ZM43.91 10.51L42.23 10.51L43.98 3.19L45.68 3.19L43.91 10.51ZM50.44 4.39C50.16 4.39 49.89 4.45 49.64 4.56C49.39 4.67 49.16 4.82 48.97 5.02Q48.67 5.31 48.45 5.71C48.31 5.98 48.21 6.27 48.14 6.57Q49.82 6.52 50.58 6.17C51.09 5.94 51.34 5.59 51.34 5.12C51.34 4.93 51.28 4.76 51.14 4.62Q50.94 4.39 50.44 4.39ZM2.75 6.13L2.04 9.11Q2.23 9.14 2.56 9.16Q2.88 9.18 3.27 9.18C3.58 9.18 3.9 9.16 4.23 9.11Q4.74 9.04 5.15 8.84C5.42 8.71 5.64 8.53 5.83 8.28Q6.1 7.92 6.1 7.34Q6.1 7.08 6 6.86Q5.9 6.64 5.69 6.47Q5.29 6.13 4.35 6.13L2.75 6.13Z" fill="#FFFFFF" fill-opacity="1.000000" fill-rule="evenodd"/>
</svg>
